<svg width="52" height="52" viewBox="0 0 52 52" fill="none" xmlns="http://www.w3.org/2000/svg">
<g clip-path="url(#clip0_38_360)">
<g clip-path="url(#clip1_38_360)">
<path d="M27.9934 4.3335C25.1334 4.3335 22.3601 5.54683 20.4534 7.80016C18.6334 5.54683 15.8601 4.3335 12.9134 4.3335C6.50008 4.3335 2.16675 10.4002 2.16675 16.0335C2.16675 27.8202 16.8134 36.8335 20.4534 36.8335C24.0934 36.8335 38.7401 27.8202 38.7401 16.0335C38.7401 10.4002 34.4067 4.3335 27.9934 4.3335Z" fill="white"/>
<path d="M43.5933 32.5C42.2066 32.5 40.9933 33.1067 40.1266 34.1467C39.26 33.1067 37.96 32.5 36.66 32.5C33.6266 32.5 31.6333 35.36 31.6333 37.96C31.6333 43.42 38.48 47.6667 40.1266 47.6667C41.7733 47.6667 48.62 43.42 48.62 37.96C48.62 35.36 46.6266 32.5 43.5933 32.5Z" fill="white"/>
</g>
</g>
<defs>
<clipPath id="clip0_38_360">
<rect width="52" height="52" fill="white"/>
</clipPath>
<clipPath id="clip1_38_360">
<rect width="52" height="52" fill="white"/>
</clipPath>
</defs>
</svg>
