<svg width="60" height="60" viewBox="0 0 60 60" fill="none" xmlns="http://www.w3.org/2000/svg">
<g clip-path="url(#clip0_38_317)">
<path d="M37.6474 22.4474C32.2874 19.2299 25.7574 21.9449 23.0549 26.4874C17.5349 35.6949 27.9324 52.1749 28.2249 52.3349" stroke="white" stroke-width="3" stroke-linecap="round" stroke-linejoin="round"/>
<path d="M50.1249 29.9226C55.4849 33.1401 56.1649 40.1651 53.4374 44.7001C47.9249 53.8851 28.4924 52.4876 28.2249 52.3351" stroke="white" stroke-width="3" stroke-linecap="round" stroke-linejoin="round"/>
<path d="M42.2075 28.975C41.8325 26.9725 40.69 24.2875 37.6475 22.4475" stroke="white" stroke-width="3" stroke-linecap="round" stroke-linejoin="round"/>
<path d="M42.2073 28.9751C44.1498 28.3501 47.0573 28.0751 50.1248 29.9226" stroke="white" stroke-width="3" stroke-linecap="round" stroke-linejoin="round"/>
<path d="M35.2074 21.4074C35.9849 19.2874 36.2599 17.1024 35.7549 15.0124C34.6399 10.4649 29.8674 6.44993 24.4899 7.74743C21.4224 8.49743 19.7499 10.4724 18.9174 12.0549C17.4174 11.0099 15.0424 10.0324 11.9724 10.7824C6.59239 12.0824 4.15239 17.8149 5.26739 22.3624C6.91239 29.1899 16.4874 33.1224 21.5049 34.6849" stroke="white" stroke-width="3" stroke-linecap="round" stroke-linejoin="round"/>
</g>
<defs>
<clipPath id="clip0_38_317">
<rect width="60" height="60" fill="white"/>
</clipPath>
</defs>
</svg>
